<svg width="139" height="139" viewBox="0 0 139 139" fill="none" xmlns="http://www.w3.org/2000/svg">
<circle cx="69.5" cy="69.5" r="69.5" fill="#143880"/>
<path d="M70.9704 47.9134C63.8762 39.4195 56.8953 35.7467 46.2699 39.4195C29.9181 45.0718 19.8158 68.8224 70.9704 101C127.687 57.3865 100.928 38.2753 90.6357 39.4195C90.6357 39.4195 79.9391 38.6362 70.9704 47.9134Z" fill="#B0FFE4"/>
<mask id="mask0" mask-type="alpha" maskUnits="userSpaceOnUse" x="33" y="38" width="73" height="63">
<path d="M70.9704 47.9134C63.8762 39.4195 56.8953 35.7467 46.2699 39.4195C29.9181 45.0718 19.8158 68.8224 70.9704 101C127.687 57.3865 100.928 38.2753 90.6357 39.4195C90.6357 39.4195 79.9391 38.6362 70.9704 47.9134Z" fill="#EB9696"/>
</mask>
<g mask="url(#mask0)">
<path d="M91.9644 105.464C50.4105 86.6372 43.7656 45.846 47.0412 28.5882L37.2144 33.2949L27.3875 47.4149L34.4067 81.9306L75.1182 107.033L91.9644 105.464Z" fill="black" fill-opacity="0.08"/>
</g>
</svg>
